# xmcd CD database file
#
# Track frame offsets:
#	150
#	19448
#	41719
#	62819
#	75987
#	97083
#	118498
#	129660
#	144021
#	162434
#	187705
#	198530
#	208739
#	228194
#	246085
#	264430
#	284878
#	306904
#	322327
#	339228
#
# Disc length: 4738 seconds
#
# Revision: 1
# Processed by: cddbd v1.5.2PL0 Copyright (c) Steve Scherf et al.
# Submitted via: CDex 1.51
#
DISCID=30128014
DTITLE=Various Artist - The Best of Jazz Music and Bonus CD
DYEAR=2011
DGENRE=Jazz
TTITLE0=Reggie G. and Anita Wilson - Corcovado
TTITLE1=Various Artist - Sophiea Roseman - The Sentimental Touch
TTITLE2=Various Artist - Gerry Paule - They Can't Take That Away From Me
TTITLE3=Various Artist - Tony Caron - I Love You For Sentimental Reasons
TTITLE4=Various Artist - Miwa Joe - Love Is Many Splendored Thing
TTITLE5=Various Artist - Fiona Amos - The Very Thought Of You
TTITLE6=Various Artist - Harburg Jill - My Funny Valentine
TTITLE7=Various Artist - Shirley Burton - Misty
TTITLE8=Various Artist - Boosey - As Time Goes By
TTITLE9=Various Artist - Attica S. - Another Star
TTITLE10=Various Artist - Lisa Figy - I See Your Face Before Me
TTITLE11=Various Artist - Jasmine R. - You For Me
TTITLE12=Various Artist - Bob Morton - Brother Can You Spare A Dime
TTITLE13=Various Artist - Lena Vaughan - I'll Close My Eyes
TTITLE14=Various Artist - Tina Vega - Gee Baby, Ain't I Good To You
TTITLE15=Various Artist - Billie Ross - When I Look In Your Eyes
TTITLE16=Various Artist - Linda Gilberto - Tears In Heaven
TTITLE17=Various Artist - Ronnie Morris - House Of The Rising Sun
TTITLE18=Various Artist - Sandra Delmar - Rhythm Of The Rain
TTITLE19=Various Artist - Vikki O'Day and Edu Elis - Dream A Little Dream
EXTD=YEAR: 2011
EXTT0=
EXTT1=
EXTT2=
EXTT3=
EXTT4=
EXTT5=
EXTT6=
EXTT7=
EXTT8=
EXTT9=
EXTT10=
EXTT11=
EXTT12=
EXTT13=
EXTT14=
EXTT15=
EXTT16=
EXTT17=
EXTT18=
EXTT19=
PLAYORDER=
